<?xml version="1.0" standalone="no"?>
<svg xmlns="http://www.w3.org/2000/svg" xmlns:xlink="http://www.w3.org/1999/xlink" height="200px" width="200px">
  <defs>
    <pattern id="doodad" width="53" height="53" viewBox="0 0 40 40" patternUnits="userSpaceOnUse" patternTransform="rotate(349)">
      <rect width="100%" height="100%" fill="rgba(239, 241, 246,1)"/>
      <path d="M0 0L20 0L20 20L0 20L0 0zM6 6L6 14L20 20L14 6zM20 20L40 20L40 40L20 40L20 20zM20 20L26 34L34 34L34 26z" fill="rgba(154, 230, 180,1)"/>
      <path d="M26 6L34 6L34 14L26 14zM6 26L14 26L14 34L6 34z" fill="rgba(144, 205, 244,1)"/>
    </pattern>
  </defs>
  <rect fill="url(#doodad)" height="200%" width="200%"/>
</svg>
