<svg width="229" height="38" viewBox="0 0 229 38" fill="none" xmlns="http://www.w3.org/2000/svg">
<path fill-rule="evenodd" clip-rule="evenodd" d="M206.079 10.6735C207.01 11.4431 208.027 12.1086 209.109 12.6575C209.007 14.7573 208.889 16.9397 208.821 19.1387C208.72 20.5919 208.72 22.0503 208.821 23.5035C209.024 25.6033 208.821 27.2401 206.232 27.7857C205.559 28.0581 204.974 28.5038 204.539 29.0753C203.49 30.15 202.457 30.894 200.833 30.1004C200.494 29.9351 199.512 30.2162 199.479 30.4146C199.292 31.1642 199.292 31.9466 199.479 32.6962C199.648 33.1757 200.308 33.4898 200.917 34.0354L196.567 37.6893L194.875 35.5896L194.841 35.4573L197.041 36.6146C197.143 36.1848 197.228 35.9864 197.194 35.9533C195.501 34.8456 195.4 33.1922 195.501 31.3404C195.625 26.4465 195.625 21.5526 195.501 16.6586C195.335 15.11 195.035 13.578 194.604 12.0788H193.927L196.331 10.1279L200.24 13.4346C201.251 12.6076 202.217 11.7301 203.134 10.8057C204.15 9.71451 204.827 9.49958 206.079 10.6735ZM151.976 11.3162C152.946 11.7566 153.958 12.1017 154.998 12.3463C154.709 17.4929 154.709 22.6512 154.998 27.7979C156.781 29.8664 155.804 31.1779 154.552 32.4193L154.357 32.6099C153.998 32.9585 153.627 33.3043 153.3 33.6628C153.201 33.7545 153.11 33.8546 153.028 33.9619C151.126 36.7698 148.885 37.5506 145.438 36.2049C143.604 35.4738 141.158 36.2049 139.104 36.3378C140.074 33.3406 143.033 31.3971 146.236 31.6525C147.815 31.9017 149.36 32.5164 150.94 32.8155C151.695 32.9064 152.46 32.9064 153.215 32.8155C153.062 32.1841 152.944 31.5528 152.757 30.9214C152.094 29.1417 151.6 27.3065 151.279 25.4386C151.042 22.1157 151.177 18.6764 151.279 15.2871C151.363 14.8001 151.245 14.3007 150.952 13.8987C150.659 13.4967 150.215 13.2251 149.717 13.1438C148.268 12.6608 146.846 12.1062 145.455 11.4823L145.098 11.8977L145.78 13.0583L146.44 13.2268C147.464 13.2894 148.405 13.8023 148.999 14.622C149.593 15.4417 149.775 16.4802 149.496 17.447C149.376 19.1063 149.376 20.772 149.496 22.4313C149.496 26.7511 149.36 27.017 145.641 29.5922C144.911 28.8114 144.385 27.8311 143.536 27.4157C141.959 26.7186 141.07 25.0607 141.379 23.395C141.522 20.3458 141.42 17.2904 141.073 14.2569C140.139 16.2507 140.53 18.3774 140.462 20.4542C140.491 22.5689 140.326 24.6819 139.97 26.7678C139.874 26.3242 139.812 25.8744 139.783 25.422C139.783 22.0991 139.681 18.909 139.783 15.6692C139.958 14.7534 140.407 13.9091 141.073 13.2435C141.583 12.6619 142.551 12.4958 143.077 11.9309C145.879 8.99012 148.834 9.62147 151.976 11.3162ZM139.919 35.3077L149.343 36.2879V35.7563L148.864 35.5894C148.784 35.5615 148.704 35.5337 148.624 35.506L148.141 35.3411C145.64 34.4997 143.019 33.8627 139.919 35.3077ZM193.343 12.4129C193.547 12.8317 194.221 13.5687 194.237 14.3226C194.363 20.1354 194.347 25.965 194.378 31.7946C194.378 32.9002 193.672 34.1063 194.771 35.1449L194.692 35.1617C193.641 34.6424 192.997 34.1566 193.625 32.6154C194.43 30.7905 193.956 28.6139 192.48 27.3554C194.567 24.2898 194.896 15.1601 192.888 13.0829L191.569 13.9875L191.397 13.82L193.343 12.4129ZM219.527 1.45974C217.274 5.47386 219.22 9.47126 218.23 13.1676L218.81 13.4185C220.159 12.2644 221.559 11.1605 222.857 9.92286C223.693 9.12003 224.257 9.23711 225.093 9.92286C226.186 10.8428 227.45 11.5954 228.508 12.3481C228.372 13.569 228.098 15.1078 228.047 16.6465C228.047 19.3895 227.911 22.1492 228.047 24.8755C228.404 27.9819 226.643 30.9508 223.71 32.1845C220.861 33.3338 217.948 34.3277 214.986 35.1617L214.713 34.292L217.24 33.7735C221.064 32.9372 222.635 31.0137 222.635 27.2171V16.3789C222.807 14.885 221.941 13.4618 220.518 12.9C218.93 13.4776 218.015 15.1075 218.366 16.7301C218.588 18.57 218.366 20.4767 218.366 22.3332C218.548 23.6974 218.816 25.0491 219.169 26.3808L219.818 26.4811L217.564 28.4882C215.915 27.8404 214.919 26.1845 215.139 24.4573C215.379 18.2522 215.139 12.0303 215.242 5.80837C215.418 4.51038 214.732 3.24645 213.535 2.66397C213.62 4.48706 213.774 6.32687 213.791 8.14995V21.798C213.791 22.1946 213.765 22.6008 213.732 23.0099L213.707 23.3171L213.682 23.6248C213.5 25.8813 213.439 28.1238 216.847 29.2408L216.044 29.8095C215.194 29.0949 214.293 28.4409 213.347 27.8526C211.981 27.0832 212.63 26.063 212.664 24.9758C212.8 20.9784 212.664 16.9476 212.664 12.9502C212.664 10.6755 212.8 8.38411 212.664 6.12616C212.438 4.57042 212.096 3.03309 211.639 1.52664L215.976 2.83123L219.527 1.45974ZM41.1156 9.665C42.3063 10.4061 43.464 11.2131 44.6382 12.0036C44.539 13.0412 44.324 14.4904 44.2909 15.9397C44.2909 18.443 44.142 20.8804 44.2909 23.4331C44.7217 27.1076 42.5882 30.6033 39.1145 31.9147C36.5802 32.8716 33.99 33.6745 31.3581 34.3191L31.1431 33.5945C32.2181 33.2981 33.3262 33.051 34.4508 32.6887C37.5268 31.6347 38.4695 30.3666 38.486 27.2045C38.486 23.1861 38.5853 19.1676 38.486 15.1657C38.486 14.2928 37.593 13.4035 36.9645 12.6459C36.9003 12.5713 36.483 12.7863 36.0306 13.0188L35.7823 13.1456C35.6583 13.2083 35.536 13.2686 35.4219 13.321L35.3376 13.3574L36.002 12.685C37.2048 11.4578 38.3923 10.2249 39.6602 9.07211C39.8422 8.92389 40.6691 9.36856 41.1156 9.665ZM221.303 12.4651C223.406 13.584 223.453 15.3262 223.399 17.1105L223.387 17.4563C223.378 17.7446 223.369 18.033 223.369 18.3191V23.1026L223.42 31.4821C223.796 30.7294 224.564 29.8095 224.598 29.0067C224.718 24.1563 224.735 19.2892 224.598 14.4387C224.536 13.6932 224.114 13.0216 223.463 12.6315C222.811 12.2413 222.009 12.1795 221.303 12.4651ZM37.8741 11.5425C37.6757 11.6907 37.6261 12.2506 37.7418 12.3495C39.7925 14.1281 38.9326 16.4996 38.9987 18.6406C39.0979 22.7908 39.0318 26.9575 39.0318 31.1241L39.2137 31.3382C39.774 30.2391 40.1643 29.062 40.3714 27.8468C40.5202 23.4002 40.5368 18.9206 40.3714 14.474C40.3714 13.8239 39.9352 13.1808 39.4615 12.5534L39.2018 12.2129C39.0293 11.987 38.8615 11.7633 38.7176 11.5425C38.6183 11.3942 38.0726 11.3942 37.8741 11.5425ZM22.478 1.45974C24.525 1.57647 26.1113 3.30841 26.0632 5.37423C26.2777 7.61542 24.6792 9.61989 22.4614 9.89095C19.2081 10.6287 19.143 10.6434 19.1417 13.7297L19.1417 24.2943C21.5093 24.2049 23.6844 22.9558 24.9677 20.9485C24.9677 24.9132 19.9882 29.5136 15.4236 30.0154C9.13278 30.718 3.80467 27.2887 2.54319 21.8352C1.00774 16.3842 4.0528 10.6912 9.41496 8.9876C6.88694 12.8113 6.92639 17.8016 9.51455 21.5842L10.1951 21.6679C10.4915 20.5325 10.6366 19.3623 10.6266 18.1883C10.1826 16.0297 11.3261 13.8583 13.3488 13.0192C14.4929 12.3602 15.601 11.6399 16.6685 10.8612L16.6723 11.0795L16.6797 11.5163C16.753 16.1026 16.6255 20.6535 10.4939 22.1865C12.4864 23.9777 15.187 24.743 17.8138 24.2608C18.179 24.2608 18.6935 23.3073 18.6935 22.772V11.7478C18.6935 10.6437 18.2121 10.2924 17.1996 10.075C14.6269 9.50619 12.0541 8.85378 9.51455 8.10099C5.44792 6.91326 2.4436 8.71995 1.21531 13.0025C0.896908 11.9172 0.751246 10.788 0.783748 9.65675C1.84605 3.91884 6.01227 1.29245 11.7387 2.42999C14.5273 3.0155 17.266 3.88538 20.038 4.33705C22.5775 4.772 23.1751 3.93557 22.478 1.45974ZM91.4741 1.45974C93.9933 1.95521 95.2117 3.11132 95.2446 5.42354C95.2446 10.2131 91.4576 10.0315 88.2469 10.6921V24.5489C90.6546 24.1819 92.8205 22.8761 94.2732 20.9154C93.0454 26.0658 88.5947 29.7984 83.3238 30.0982C77.4759 30.3175 72.3923 26.106 71.5019 20.3043C70.7623 15.349 73.6373 10.5656 78.3514 8.90838C75.8072 12.7224 75.8529 17.7105 78.4666 21.4769H79.3063C79.5164 20.0553 79.6209 18.62 79.6192 17.1828C79.3823 15.5765 80.1986 13.9989 81.6444 13.2686C83.0275 12.4593 84.2953 11.4188 85.6948 10.4113C85.7608 12.5465 85.5673 14.6817 85.1185 16.7699C84.3476 18.3188 83.2723 19.6952 81.9572 20.8163C81.3597 21.32 80.6946 21.737 79.9814 22.055C81.1504 23.7066 85.2009 24.8297 86.8803 23.9873C87.3066 23.6362 87.564 23.1198 87.5883 22.567V11.4683C87.5883 11.0389 87.2755 10.3122 86.9791 10.2296C83.7862 9.24963 80.5292 8.49358 77.2317 7.96698C75.5834 7.7798 73.8175 8.62384 72.1007 9.07994L71.8914 9.13198L71.8806 9.15612L70.5304 12.6079C68.4064 8.56155 72.3251 2.41765 77.5116 2.35159C79.797 2.45406 82.068 2.76921 84.2953 3.29299C85.9418 3.59028 87.5883 4.15182 89.2348 4.36652C91.6881 4.68033 92.3467 3.75544 91.4741 1.45974ZM5.04956 13.2367C1.72986 16.4486 3.02454 23.6586 6.12846 26.4857C10.1287 30.0656 17.93 30.2664 20.5359 27.0545H20.4529C11.1744 31.0526 1.08252 25.8166 5.04956 13.2367ZM133.872 10.1869C135.264 11.6405 136.729 13.0225 138.26 14.3275L135.24 16.3391L130.752 11.3101L130.018 11.9136L134.206 16.9426C133.325 17.6294 132.4 18.2566 131.436 18.8201C130.071 19.4277 129.274 20.8722 129.484 22.3573C129.484 23.4948 130.091 23.9144 130.773 24.271L130.99 24.3822C131.245 24.5114 131.503 24.6413 131.736 24.8047C132.415 25.4029 133.319 25.6747 134.213 25.5491C135.107 25.4236 135.902 24.9132 136.391 24.151C136.775 23.7151 137.259 23.3631 137.693 22.9607L137.943 23.2625C135.907 25.1903 133.905 27.1349 131.853 29.0124C131.586 29.2638 131.035 29.2303 130.602 29.2638C130.435 29.2638 130.235 29.1297 130.051 29.0459C124.078 26.7493 124.412 26.7325 123.978 20.3289C123.661 15.5345 124.578 12.0309 129.517 10.4719C129.898 10.3353 130.245 10.1181 130.535 9.83487C131.786 8.56084 132.687 8.92964 133.872 10.1869ZM35.3438 0.617188C33.985 3.04073 34.0606 5.49099 34.2222 7.89658L34.2674 8.5515C34.3505 9.74994 34.4244 10.9356 34.3207 12.0995C34.3207 12.4377 34.7828 12.8436 35.0303 13.2156L35.0963 13.2833C34.652 13.9641 34.328 14.7197 34.1392 15.5155C33.9989 18.0105 33.9989 20.5118 34.1392 23.0069C34.396 24.1854 34.8067 25.3231 35.3603 26.389L33.3636 28.2154C31.8325 27.6376 30.8945 26.0519 31.1028 24.3936C31.3008 17.9675 31.2348 11.5584 31.1028 5.13233C30.9676 3.9571 30.4434 2.86486 29.6176 2.03768C29.6176 3.54273 29.8652 5.04778 29.8817 6.55283V21.9584C29.8817 22.5092 29.8256 23.078 29.7748 23.6463L29.748 23.9561C29.586 25.9164 29.6192 27.8294 32.3735 28.9256L31.7464 29.2638L28.446 26.5581C28.6611 25.2881 28.8043 24.0064 28.875 22.7194C28.875 17.1727 28.974 11.6429 28.875 6.09624C28.672 4.37172 28.3016 2.67224 27.7694 1.02304C29.1094 0.566358 30.5812 1.09462 31.3503 2.30825L35.3438 0.617188ZM182.536 9.47925C184.642 10.347 186.715 11.2816 188.77 12.1828C187.851 14.9394 187.995 17.9067 188.18 20.9082L188.236 21.8096C188.281 22.5612 188.323 23.3139 188.345 24.0649C188.345 24.7658 189.653 25.4166 190.553 26.3011L187.156 28.7877C187.156 28.4539 187.156 27.9032 187.054 27.8365C184.761 26.7851 184.659 24.8325 184.744 22.8299L184.744 18.3572C184.739 13.8326 184.594 13.767 180.226 11.7989C179.998 11.6575 179.752 11.5453 179.496 11.4652C179.12 11.4604 178.745 11.4883 178.374 11.5486C178.957 12.2612 179.726 12.8037 180.6 13.1173C183.198 13.9517 183.997 15.6039 183.793 18.274C183.768 21.1556 183.91 24.0361 184.218 26.9019L182.774 25.9507L179.44 28.6033L179.445 28.6041L179.432 28.6092L179.377 28.6542L179.366 28.642L179.341 28.6548C178.846 28.9081 178.236 29.3785 177.967 29.2383C176.687 28.6206 175.498 27.8346 174.434 26.9019C173.041 25.6336 173.737 20.5603 175.317 19.4923C176.302 18.808 177.321 18.1739 178.459 17.4396L174.026 13.7348C176.404 12.0659 178.493 10.4972 180.668 9.12879C181.058 8.87847 181.958 9.22892 182.536 9.47925ZM115.487 1.45974C117.613 2.74775 118.996 4.03576 118.861 6.79343C118.64 11.2654 118.713 15.7485 118.802 20.2245L118.861 23.2073C118.861 25.6182 119.654 26.1136 122.235 25.5191C120.919 26.6751 119.637 27.897 118.254 28.9869C117.779 29.276 117.198 29.3426 116.668 29.1685C114.781 28.4973 113.54 26.7246 113.581 24.7595V5.95127C113.87 6.72021 114.074 7.51744 114.188 8.32913V24.9412C114.188 27.253 116.331 28.9869 118.119 28.0621C115.538 27.0218 115.251 25.0072 115.285 22.6789C115.386 17.5434 115.285 12.3913 115.285 7.25579C115.154 6.38873 114.819 5.56332 114.306 4.8449C114.188 4.63023 113.632 4.64674 113.26 4.56418L112.957 5.65403L111.27 6.01732L115.487 1.45974ZM55.7388 9.23312C57.7052 10.7815 59.4423 12.3965 61.507 14.2279C58.5246 16.1593 56.2796 17.7576 53.9035 19.1062C52.6865 19.7063 52.1186 21.1487 52.5926 22.4361C52.865 23.3127 53.4493 24.0547 54.2312 24.5173C55.575 25.2332 56.9842 26.6817 58.754 25.1C57.3939 26.4153 56.0666 27.7306 54.6901 28.9959C54.3941 29.2329 54.0076 29.3188 53.6413 29.229C51.5602 28.2967 49.4954 27.2977 47.4307 26.3154C47.316 26.3154 47.2996 25.9991 47.1685 25.6661L54.1001 28.8128L54.4279 27.997C53.1169 27.3643 51.8224 26.6484 50.4623 26.1322C49.2983 25.8066 48.5819 24.6202 48.8236 23.4184C48.9547 20.7711 48.8236 18.1072 48.8236 15.4433C48.8236 14.8107 48.8236 14.1946 48.6925 13.3788C47.7354 14.3193 47.6947 14.3593 47.693 18.1605L47.6929 18.69C47.7278 20.5518 47.6567 22.4141 47.4799 24.2675V13.9948C47.6124 13.3874 47.994 12.8664 48.5286 12.563C50.3312 11.3809 52.1993 10.2654 54.1001 9.23312C54.6178 8.97919 55.2212 8.97919 55.7388 9.23312ZM169.231 9.04267L172.841 11.9993L169.511 15.7831L166.6 13.7438C166.23 14.6978 165.953 15.6861 165.772 16.695C165.649 19.0521 165.649 21.4142 165.772 23.7713C165.772 25.6145 166.587 26.0588 168.624 25.2689C167.222 26.75 166.163 27.9513 165.006 29.021C164.545 29.2899 163.989 29.3381 163.49 29.1526C161.599 28.4197 160.43 26.497 160.638 24.4625V15.4114C160.638 13.5189 160.1 13.1568 158.503 13.5847L163.001 9.04267C164.06 10.3921 165.103 11.7416 166.179 13.0581C166.216 13.1 166.269 13.1313 166.33 13.1566L169.231 9.04267ZM105.869 9.05117C106.337 9.09971 106.758 9.35271 107.015 9.73991C108.528 11.2412 110.193 12.5924 112.113 14.2605L104.653 19.0314C103.592 19.5774 102.951 20.6781 103.009 21.8523C103.068 23.0265 103.815 24.0607 104.925 24.5028C107.882 26.0208 107.882 26.0041 110.414 23.7521C110.754 23.3965 111.247 23.2228 111.74 23.2851C109.632 25.2034 107.542 27.1217 105.401 29.0067C105.098 29.2402 104.702 29.3205 104.33 29.2236C101.866 28.2728 99.6057 27.2552 97.8043 26.4545V15.2614C97.6184 14.0532 98.3309 12.8852 99.5037 12.4756C101.272 11.5987 102.976 10.6009 104.602 9.48969C104.936 9.16372 105.401 9.00263 105.869 9.05117ZM74.4656 12.7731C71.3847 16.8031 71.714 22.4894 75.2394 26.1344C79.429 29.8066 85.6357 29.9525 89.9922 26.4812C85.4314 28.5457 80.8047 29.1403 76.7213 25.9032C72.638 22.6661 72.8685 17.7278 74.4656 12.7731ZM125.596 13.657C125.096 13.8581 124.879 14.0593 124.879 14.2772C124.879 17.8981 124.779 21.5191 124.879 25.1232C124.931 25.5762 125.182 25.9821 125.563 26.2296C127.248 27.1516 129.117 27.9898 130.952 28.8615L131.302 28.2077C130.001 27.6042 128.716 26.9505 127.398 26.414C126.238 26.053 125.525 24.884 125.73 23.6816C125.863 21.1335 125.73 18.6525 125.73 16.0374C125.73 15.2495 125.73 14.361 125.596 13.657ZM98.8579 13.1762C98.3991 13.8935 98.1442 14.0937 98.1442 14.3106C98.1442 17.897 98.0422 21.4835 98.1442 25.0866C98.2037 25.5308 98.4665 25.9239 98.8579 26.1542C100.345 26.9327 101.915 27.6301 103.478 28.3429L104.375 28.7541L104.738 28.1226C103.267 27.5298 101.836 26.8444 100.455 26.0708C99.7458 25.6016 99.2659 24.8649 99.1298 24.0357C98.9939 21.1165 99.1298 18.1806 99.1298 15.2614C99.0752 14.5623 98.9845 13.8663 98.8579 13.1762ZM175.419 20.0597C174.237 21.6379 174.024 23.7229 174.861 25.5008C175.669 27.2152 177.331 28.3822 179.232 28.5855L179.322 28.5923L179.16 28.4083C178.718 27.9248 178.221 27.4922 177.678 27.1189C176.092 26.5488 175.173 24.9208 175.521 23.2972C175.574 22.2171 175.54 21.1345 175.419 20.0597ZM160.719 12.1694C160.947 14.0948 161.273 15.938 161.355 17.7976C161.453 20.3648 161.355 22.932 161.355 25.4828C161.453 27.4905 162.903 28.6918 165.478 28.2969C162.571 27.5049 162.323 25.761 162.332 23.8928L162.335 23.6045L162.34 23.3149C162.342 23.2182 162.344 23.1215 162.345 23.0247L162.349 22.7345V14.6708C162.497 13.544 161.803 12.4785 160.719 12.1694ZM145.806 13.2369L145.811 13.1105C145.692 16.9817 145.472 20.853 145.54 24.7408C145.54 25.3389 146.966 25.9204 147.73 26.5019C148.223 25.8041 149.038 25.1395 149.123 24.3919C149.326 22.4978 149.123 20.5539 149.225 18.6598C149.445 16.2507 149.072 14.34 146.321 13.6754C146.108 13.582 145.976 13.4561 145.86 13.3099L145.806 13.2369ZM179.309 17.9569H179.275C179.154 20.0691 179.154 22.1863 179.275 24.2985C179.36 24.9494 180.464 25.5001 181.109 26.0842C181.602 25.5168 182.366 25.0161 182.553 24.4153C182.681 23.4236 182.681 22.4199 182.553 21.4281C182.757 18.4743 182.757 18.4743 179.309 17.9569ZM201.967 13.2527H201.95C200.035 13.6042 198.767 15.3962 199.106 17.2704C199.242 18.9237 199.106 20.5771 199.106 22.2304C199.106 25.4379 199.36 25.6694 203.168 25.5371C203.168 22.6768 203.287 19.7835 203.168 16.9232C202.93 15.6545 202.526 14.4209 201.967 13.2527ZM202.153 12.3599C204.164 14.6368 204.17 17.1782 204.023 19.7343L203.99 20.2822C203.882 22.0173 203.765 23.7508 204.218 25.4049H204.776C204.872 24.8579 204.934 24.3058 204.962 23.7515V15.8154C204.962 13.9306 203.93 13.0212 202.153 12.3599ZM12.2201 15.0601H11.7719V20.6809H12.2201V15.0601ZM81.2986 14.9201H80.8541V20.4364H81.2986V14.9201ZM129.751 13.0367V19.2225L133.238 16.9259L129.751 13.0367ZM52.6909 13.0458V19.2227L56.0993 16.8419L52.6909 13.0458ZM103.191 13.4932V19.1648L106.488 16.9629C105.824 15.9991 105.28 15.2066 104.761 14.4332L104.6 14.1923L103.191 13.4932ZM174.926 14.2187L182.315 18.1572C183.283 15.7374 182.417 14.636 180.617 14.0185C178.816 13.401 177.219 11.2148 174.926 14.2187ZM103.344 12.0419L104.58 14.1561L104.932 14.4988C105.425 14.9652 105.944 15.4036 106.488 15.8119C106.98 16.046 107.5 16.2197 108.035 16.329C104.636 11.4914 104.517 11.4581 103.344 12.0419ZM53.3464 12.0469C53.7069 13.5953 56.296 16.1759 57.1809 16.0094L53.3464 12.0469ZM6.17825 6.37794C4.9515 6.64613 3.78225 7.13336 2.72577 7.8166L2.94155 8.46902C5.52348 7.00024 8.62047 6.76722 11.3902 7.83333C13.5723 8.46932 15.7892 8.9776 18.0296 9.35563C20.6853 9.75712 23.3245 9.67348 25.2499 7.56567H25.1669C23.3565 8.02536 21.5047 8.29999 19.6396 8.38537C17.2795 8.11857 14.9356 7.72207 12.6185 7.19764C10.497 6.7509 8.34332 6.47678 6.17825 6.37794ZM72.605 7.50453C72.3206 7.78981 72.1995 8.45727 71.9572 8.99816L71.9218 9.06963L71.9522 9.04928C72.7735 8.45548 73.5949 7.50453 74.4162 7.50453C76.8827 7.56262 79.342 7.79442 81.7761 8.1982C84.3611 8.56155 86.9297 9.27173 89.5147 9.38734C91.6858 9.6818 93.7753 8.44606 94.5695 6.39797C92.4463 8.23304 89.5735 8.93347 86.8474 8.28078C84.3941 7.8844 81.9902 7.1577 79.5698 6.62919C77.1494 6.10069 74.6302 5.77037 72.605 7.50453Z" fill="#BEBEBE"/>
</svg>
