<svg width="69" height="62" viewBox="0 0 69 62" fill="none" xmlns="http://www.w3.org/2000/svg">
<path d="M45.9179 -3.8147e-06L34.1212 17.7144L22.3243 -3.8147e-06C15.0779 -3.8147e-06 7.32558 -3.8147e-06 0.0791016 -3.8147e-06V62H10.6388H21.229H22.83H27.5782C26.7531 58.8472 26.0612 56.211 25.7493 55.1234C24.8289 51.9155 24.0352 49.9634 23.8202 49.4546C23.7485 49.2909 23.6936 49.1574 23.6618 49.0659C23.3926 48.2882 19.702 47.6932 18.5343 45.287C17.3662 42.8813 14.9197 28.9788 14.7758 28.306C14.6324 27.6328 14.8767 27.4343 15.015 27.4123C15.1519 27.3917 15.1613 27.5135 15.1613 27.5135C15.1613 27.5135 19.1819 40.3203 19.3018 40.6971C19.42 41.0743 19.5456 41.4369 19.9542 41.2925C20.3616 41.1482 20.2242 40.5903 20.2242 40.5903C20.2242 40.5903 16.6658 28.1824 16.4849 27.3708C16.3044 26.5592 16.8646 27.049 16.8646 27.049L21.3731 39.9393C21.3731 39.9393 21.5788 40.7887 22.1213 40.6159C22.8383 40.3302 22.429 39.5355 22.429 39.5355L18.0006 26.6144C18.0006 26.6144 18.1299 25.8606 18.4881 26.6044C18.8453 27.3485 23.7069 39.258 23.7069 39.258C23.7069 39.258 23.943 39.7782 24.3434 39.6136C24.7447 39.4478 24.6191 39.0853 24.4797 38.7161C24.3406 38.3468 19.5897 25.8193 19.5897 25.8193C19.5897 25.8193 19.5224 25.7196 19.6403 25.6427C19.7591 25.5663 20.0668 25.5538 20.3686 26.1663C20.67 26.779 27.2976 39.0819 27.8737 41.714C28.4508 44.346 25.9868 47.2957 26.256 48.0734C26.2913 48.1749 26.3363 48.3341 26.3881 48.5341C26.4129 48.6297 26.8148 50.1608 28.227 53.8938C28.6692 55.0633 29.9556 58.2952 31.4398 62H32.588H33.0848H35.792C37.5201 58.1658 39.19 54.4874 40.0041 52.6209C39.7096 52.5063 39.4454 52.3933 39.2468 52.2894C38.2196 51.7556 38.6777 51.5736 41.908 41.8486C45.417 31.2875 51.4215 25.837 52.702 25.6224C53.9818 25.4079 53.1752 27.3533 53.1752 27.3533L43.6495 51.9599C43.5347 52.2565 43.4145 52.5673 43.2888 52.8931C42.8014 54.151 41.5647 57.8661 40.2149 62H45.4124H47.0135H58.2047H68.0791V-3.8147e-06C60.9168 -3.8147e-06 53.0803 -3.8147e-06 45.9179 -3.8147e-06Z" fill="#BEBEBE"/>
</svg>
