<svg width="122" height="52" viewBox="0 0 122 52" fill="none" xmlns="http://www.w3.org/2000/svg">
<path fill-rule="evenodd" clip-rule="evenodd" d="M13.2696 13.5931L12.2104 14.1227C9.91543 15.3585 9.56236 15.8881 10.445 18.3595C12.2104 22.9494 13.7992 27.5393 15.5645 32.1292C16.9768 35.8364 18.3891 39.3671 19.9779 43.2508L20.1606 43.0681L20.4433 42.7854C20.5219 42.7068 20.5868 42.6419 20.6433 42.5854L20.7936 42.4351C20.8164 42.4123 20.8385 42.3902 20.8605 42.3682C23.6851 34.9537 26.5096 27.7158 29.1576 20.1249C30.7464 15.8881 30.3934 15.535 25.8035 13.5931H35.8659C31.6291 15.9763 30.1727 20.0476 28.7411 24.0941L28.3822 25.1042C28.0205 26.1119 27.6461 27.109 27.2158 28.0689C24.0381 35.1303 21.3901 42.1916 18.3891 49.4295C18.3891 49.9591 18.036 50.6653 17.6829 51.5479C14.8584 44.31 12.0338 37.0721 9.20929 30.0108C7.79702 26.4801 6.38475 22.9494 4.97247 19.5953L4.81465 19.2499L4.5006 18.5554C3.60478 16.5867 2.60692 14.6435 0.206055 13.5931H13.2696ZM103.125 24.0086C101.184 24.5382 101.537 26.127 101.537 27.7158C101.537 31.4231 101.537 35.1303 101.184 38.8375C100.83 41.8386 98.712 43.7804 95.711 44.1335C93.7691 44.31 91.8272 44.1335 89.8853 43.7804C87.2373 43.0743 85.6485 40.7794 85.6485 37.7783C85.6485 34.4241 85.472 31.07 85.6485 27.7158C85.6485 26.127 85.472 24.8913 83.7066 24.3617H91.6507C88.8261 25.0678 89.5323 26.8332 89.5323 28.422C89.7088 32.1292 89.5323 36.0129 90.0619 39.7202C90.4149 42.1916 92.5333 43.2508 95.0048 43.0743C97.6528 42.8978 99.4182 41.4855 99.5947 39.014C99.9478 34.9537 99.9478 30.7169 99.9478 26.6566C99.5947 25.5974 98.712 24.7148 98.359 24.0086H103.125ZM120.426 23.479C120.073 25.2444 119.896 26.6566 119.72 28.0689H119.367C119.19 27.5393 118.66 27.0097 118.66 26.4801C118.484 24.8913 117.778 24.0086 116.012 24.0086C114.247 24.0086 112.658 24.7148 112.305 26.4801C112.129 27.7158 112.835 29.1281 113.541 30.1873C113.894 30.8935 115.13 31.07 115.836 31.5996C116.719 32.1292 117.778 32.4823 118.66 33.1884C122.368 35.6599 122.015 40.9559 117.954 42.8978C115.306 44.1335 112.305 44.1335 109.481 43.2508C109.128 43.0743 108.598 42.3682 108.598 42.0151C108.598 40.7794 108.951 39.5436 109.128 38.1313C109.657 38.3079 109.834 38.3079 110.01 38.3079C110.187 39.014 110.54 39.5436 110.54 40.2498C110.716 41.8386 111.246 42.8978 113.011 42.8978C114.953 42.8978 116.719 42.5447 117.425 40.4263C118.131 38.6609 117.425 37.4252 116.012 36.366C114.953 35.6599 113.717 35.1303 112.482 34.4241C109.304 32.8353 108.245 31.07 108.598 27.8924C108.951 25.5974 110.893 23.6556 113.894 23.3025C116.012 23.126 118.131 23.479 120.426 23.479ZM75.7626 24.1852C75.4095 25.5974 75.233 27.0097 74.8799 28.775L74.7389 28.5681L74.5094 28.247C74.3756 28.0617 74.2747 27.9176 74.1738 27.7158C73.6442 26.6566 74.1738 24.7148 72.2319 24.5382C69.7605 24.1852 67.4655 24.3617 65.7002 26.4801C63.4052 29.1281 63.0522 32.4823 63.5818 35.8364C63.9348 37.4252 64.4644 39.014 65.3471 40.4263C66.4063 42.1916 68.1717 42.8978 70.1135 43.0743C71.7023 43.2508 72.585 42.8978 72.4085 40.9559C72.2319 40.0732 72.4085 39.1906 72.4085 38.4844L72.4115 38.0616C72.4226 36.7985 72.3908 35.6069 70.6431 35.1303H78.2341C76.1745 35.8658 76.199 37.2144 76.2644 38.4607L76.2832 38.8308C76.2885 38.9527 76.2922 39.0729 76.2922 39.1906C76.1157 43.7804 77.3514 43.2508 71.8789 43.7804C70.1135 43.957 68.1717 43.7804 66.4063 43.4274C61.8164 42.3682 58.9919 39.1906 58.8153 34.6007C58.6388 30.7169 60.4042 26.3036 64.8175 24.5382C67.9951 23.3025 72.0554 23.126 75.7626 24.1852ZM45.2222 22.5964C47.1641 28.0689 48.9294 33.0119 50.6948 37.9548C52.1071 42.0151 52.1071 42.1916 54.7551 43.6039H45.9284C48.7529 42.3682 47.5172 40.7794 47.1641 39.014C46.6345 37.2487 45.5753 36.8956 43.9865 37.0721H43.2804C40.2793 37.0721 38.867 38.3079 38.5139 41.309C38.5139 42.0151 39.3966 42.7212 39.7497 43.2508H33.7475C36.4936 42.4662 37.3024 40.5193 37.9677 38.6297L38.1648 38.0658C38.3284 37.5993 38.4943 37.1441 38.6905 36.7191C40.4558 32.8353 41.8681 28.775 43.6334 24.8913C43.9865 24.1852 44.5161 23.6556 45.2222 22.5964ZM43.1038 29.4812C42.3977 31.5996 41.515 33.718 40.6323 35.8364H45.9284C45.2222 33.718 44.6926 31.7761 43.9865 29.6577C43.6334 29.6577 43.4569 29.4812 43.1038 29.4812ZM18.5656 0C19.0952 2.64801 19.4483 5.11949 19.9779 7.7675C20.1544 7.94403 20.3309 8.12056 20.5075 8.12056C20.9047 5.86976 22.0963 5.80356 23.412 5.83666L23.7907 5.84701C24.1082 5.8549 24.429 5.85715 24.7443 5.82562H32.1587V6.70829H21.7432C21.2136 9.53284 20.8605 12.0043 20.5075 14.2993H20.1544C19.6248 11.2982 19.0952 8.12057 18.5656 5.11949C18.3891 5.11949 18.2125 4.94295 18.036 4.94295C17.3299 7.06136 15.9176 6.88483 14.1522 6.88483C11.6808 6.70829 9.20929 6.88483 6.73781 6.88483V6.00216C9.20929 6.00216 11.6808 5.82562 14.1522 6.00216C16.0941 6.17869 16.9768 5.47255 17.1533 3.53068C17.3299 2.47148 17.6829 1.23574 17.8595 0.176534C18.2125 0 18.3891 0 18.5656 0Z" fill="#BEBEBE"/>
</svg>
