<svg width="188" height="39" viewBox="0 0 188 39" fill="none" xmlns="http://www.w3.org/2000/svg">
<path d="M2.5868 33.8228C4.87536 33.8917 7.16393 33.9192 9.85231 33.9192C9.12162 35.3785 8.57016 36.5899 7.90841 37.7325C7.75676 38.0078 7.17772 38.118 6.7917 38.1317H1.67688C0.463665 38.2006 0.00870888 37.7738 0.0224954 36.5761C0.0224954 33.7429 -0.100179 33.8292 1.60875 33.8375L1.96291 33.8373C2.15194 33.8359 2.35932 33.832 2.5868 33.8228ZM38.942 0.163836V35.9566C38.942 37.9744 38.942 38.0721 37.0259 38.0765L13.0922 38.0767C13.5747 36.8652 13.9469 35.874 14.3881 34.9242C17.752 27.6555 21.1205 20.4005 24.4936 13.1594C26.341 9.1671 28.1747 5.16106 30.0083 1.18255C30.2471 0.698258 30.6935 0.348715 31.2215 0.232668C33.7582 0.122536 36.226 0.163836 38.942 0.163836ZM94.1985 13.2833C95.7426 13.9578 94.8602 15.2932 94.9292 16.3945C88.3254 15.9402 85.8852 17.4408 85.8852 21.9011C85.8852 26.3614 88.2565 27.8069 94.8051 27.2975C95.3566 29.8443 95.0808 30.3124 92.7095 30.808C88.9851 31.71 85.087 30.2469 82.8797 27.1186C80.9362 23.5397 81.2706 19.1563 83.7345 15.9127C85.8025 13.4072 91.2757 11.9892 94.1985 13.2833ZM121.689 7.69409V11.824C121.689 12.9391 122.047 13.3246 123.068 13.2007H124.226C125.425 13.0355 125.701 13.6274 125.701 14.715C125.701 15.8025 125.397 16.1605 124.322 16.0916C121.206 16.0916 121.565 15.7199 121.496 19.0652V23.8146C121.537 27.5316 121.716 27.6555 125.342 27.7656C125.673 30.5189 125.425 30.808 122.792 30.9044C119.001 31.042 117.277 29.4589 117.277 25.6869V16.2981L114.975 16.009V13.2557L117.194 13.0492C117.357 12.1389 117.463 11.2194 117.512 10.296C117.512 8.91931 117.925 8.13462 119.414 8.06579C120.178 7.98109 120.938 7.85703 121.689 7.69409ZM149.938 13.3383C152.422 13.8171 154.236 15.961 154.294 18.487C154.418 21.8047 154.404 25.1362 154.377 28.4677C154.324 28.9199 154.05 29.3168 153.646 29.5277C150.566 30.8829 147.139 31.2439 143.844 30.5602C141.365 30.1517 139.525 28.0434 139.46 25.5354C139.173 23.0925 140.84 20.8488 143.265 20.4143C145.54 19.909 147.841 19.5276 150.158 19.2717C150.261 18.4213 149.962 17.5714 149.349 16.9724C148.735 16.3734 147.878 16.0937 147.029 16.2155C145.082 16.3578 143.145 16.6013 141.224 16.9452C140.728 14.3846 140.756 14.0404 143.334 13.5448C145.509 13.119 147.74 13.0492 149.938 13.3383ZM74.2907 13.0079C77.5305 13.3934 79.3917 15.9127 79.5158 19.547C79.6123 22.438 79.5847 25.3427 79.5158 28.2337C79.464 28.7291 79.1835 29.1721 78.7575 29.4313C75.7043 30.8451 72.2729 31.2269 68.9829 30.5189C66.0601 29.8581 64.6815 28.275 64.6815 25.5905C64.6815 22.5206 65.7568 20.9374 68.8174 20.2353C70.913 19.7535 73.0499 19.6159 75.2695 19.2717C75.3945 18.4157 75.1092 17.5508 74.4994 16.9364C73.8895 16.322 73.0259 16.0295 72.1676 16.1467C70.2582 16.2699 68.3573 16.4997 66.4737 16.835C65.743 14.949 66.0739 13.9854 68.1419 13.5586C70.1513 13.0626 72.225 12.8769 74.2907 13.0079ZM166.688 12.8978C169.735 12.8978 170.052 13.3246 169.583 16.4496C169.316 16.4083 169.047 16.3656 168.778 16.3244L168.239 16.2449C165.639 15.879 163.084 15.8366 161.532 18.7486C160.206 20.9343 160.382 23.7128 161.973 25.7144C163.945 28.2474 166.785 27.862 169.639 27.1048C169.956 30.3399 169.639 30.8355 166.509 30.8493C164.878 30.9131 163.248 30.7084 161.684 30.2436C157.823 28.8669 156.169 25.797 156.541 20.7172C156.873 17.0628 159.531 14.0411 163.118 13.242C164.293 13.0035 165.489 12.8882 166.688 12.8978ZM183.273 13.5035C186.224 14.8802 187.409 17.427 187.782 20.4969C187.988 22.1213 187.106 22.6307 185.686 22.6307H177.607L175.76 22.6582C175.76 27.036 179.592 28.5503 185.796 26.9258C186.32 29.9407 186.224 30.3124 183.26 30.6566C181.152 30.9289 179.011 30.8122 176.945 30.3124C173.058 29.2524 171.1 25.6318 171.431 21.0338C171.927 14.8251 177.842 11.0256 183.273 13.5035ZM102.043 6.97824C101.905 10.6126 101.974 14.2745 101.974 17.895V28.9082C101.974 30.161 101.698 30.6703 100.334 30.6015C97.4935 30.4776 97.8106 30.9044 97.8106 28.0272V6.9094C97.8106 5.13353 98.555 5.05093 99.9613 5.0234C101.368 4.99586 102.112 5.31249 102.043 6.97824ZM46.0145 6.97824C49.7506 7.1572 53.4592 7.14343 57.1264 7.55643C59.7113 7.66089 61.8233 9.65237 62.0758 12.2233C62.4845 14.5506 61.2969 16.8661 59.1668 17.895C59.1668 17.895 59.0841 18.1291 58.9325 18.4595C59.3047 18.666 59.6218 18.8587 59.9389 19.0101C62.0062 19.805 63.3519 21.8096 63.3028 24.0211C63.4029 26.3358 62.001 28.4523 59.8286 29.2661C58.3782 29.9025 56.8396 30.3156 55.2652 30.4914C53.8629 30.6094 52.4472 30.615 51.0307 30.6007L48.9072 30.5759C48.5537 30.5731 48.2006 30.572 47.8481 30.574H46.0145V6.97824ZM138.577 12.9804V16.2706C137.199 16.6836 135.82 17.014 134.441 17.4958C133.248 17.8462 132.496 19.0205 132.677 20.2491C132.787 23.1401 132.677 26.0448 132.677 28.9357C132.677 30.3124 132.249 30.6979 130.967 30.5602C130.278 30.4914 129.478 30.5602 128.458 30.5602V13.3108H131.974L132.635 15.362C134.428 14.123 136.082 12.6087 138.577 12.9804ZM111.156 13.2557C111.965 13.2887 112.775 13.2795 113.582 13.2282C111.556 15.8163 109.86 18.074 108.068 20.2353C107.406 21.02 107.13 21.4193 107.985 22.3691C110.274 24.9022 112.369 27.6279 114.782 30.5464H109.984C109.639 30.5464 109.24 30.1334 108.991 29.8168C107.172 27.4903 105.421 25.1224 103.573 22.8234C103.295 22.5632 103.137 22.1993 103.137 21.8185C103.137 21.4376 103.295 21.0738 103.573 20.8135C105.131 18.7899 106.717 16.7662 108.15 14.6324C108.735 13.5581 109.959 12.9974 111.156 13.2557ZM13.3403 25.3978C13.3403 28.0547 12.1822 29.2524 9.74202 29.2524H0.160361C-0.16749 25.5858 -0.183483 25.4069 2.82966 25.3982L13.3403 25.3978ZM71.8643 22.3003C69.5619 22.5619 68.2384 24.3515 68.9553 26.0999C69.5205 27.4765 71.7126 28.1098 74.2493 27.6968C76.0692 27.4077 75.2144 26.0448 75.3523 25.1087C75.4224 24.1879 75.4316 23.2636 75.3798 22.3416V22.3003C74.0012 22.3003 72.9396 22.2039 71.8643 22.3003ZM150.31 22.1489L150.282 22.1764C148.612 22.2323 146.95 22.4443 145.319 22.8097C144.454 23.2077 143.834 23.9965 143.651 24.9297C143.568 25.7144 144.244 27.1461 144.85 27.2975C146.476 27.6086 148.135 27.7058 149.786 27.5866C149.951 27.5866 150.241 26.9121 150.268 26.5266C150.351 25.205 150.31 23.911 150.31 22.1489ZM50.1229 20.3455V27.5316C52.1168 27.4858 54.1059 27.3157 56.0786 27.0222C56.9361 26.9503 57.7237 26.5212 58.2483 25.8402C58.773 25.1591 58.9863 24.289 58.836 23.4429C58.6406 21.7533 57.2429 20.4569 55.541 20.3868C53.8177 20.2353 52.0668 20.3455 50.1229 20.3455ZM0.0914282 16.8901L17.8072 16.9452C17.3149 18.0868 16.7484 19.195 16.1114 20.2629C15.8908 20.5933 15.1464 20.6896 14.65 20.6896H1.9664C0.408519 20.6896 -0.101584 20.2353 0.0914282 18.7623C0.133347 18.139 0.133347 17.5135 0.0914282 16.8901ZM179.275 15.7475C177.607 15.8714 176.091 17.6472 175.884 19.9875H182.543C183.439 19.9875 183.604 19.4507 183.411 18.6109C183.022 16.7051 181.199 15.443 179.275 15.7475ZM50.1091 10.5713L50.1229 16.835C51.8737 16.835 53.4041 16.9314 54.9344 16.835C56.6135 16.7852 57.9651 15.4416 58.0226 13.7651C58.1191 12.0994 57.3608 10.7365 55.8719 10.5713C53.9523 10.4676 52.0286 10.4676 50.1091 10.5713ZM21.2814 8.25852C21.0884 11.0118 19.9716 12.1407 17.5039 12.1407H0.132788V12.1957C-0.103553 8.446 -0.114807 8.26744 2.993 8.25894L21.2814 8.25852ZM25.3346 0.232668C25.0786 1.05329 24.7318 1.84285 24.3006 2.58673C23.9168 3.12114 23.337 3.48237 22.6876 3.59169H1.38736C0.436092 3.59169 -0.0740105 3.35766 0.00870888 2.3114C0.0914282 1.71945 0.036282 1.07242 0.036282 0.232668H25.3346Z" fill="#BEBEBE"/>
</svg>
