<svg width="53" height="61" viewBox="0 0 53 61" fill="none" xmlns="http://www.w3.org/2000/svg">
<path fill-rule="evenodd" clip-rule="evenodd" d="M50.8448 14.8245L42.4944 9.95549C42.36 9.87717 42.2077 9.83594 42.0526 9.83594C41.5646 9.83594 41.1689 10.2355 41.1689 10.7284V20.4663C41.1689 20.623 41.2098 20.7768 41.2873 20.9125C41.5313 21.3393 42.0717 21.4856 42.4944 21.2392L50.8448 16.3702C50.9791 16.2919 51.0907 16.1792 51.1682 16.0435C51.4122 15.6167 51.2674 15.0709 50.8448 14.8245ZM52.1995 44.4499V23.5656C52.1995 23.409 52.1587 23.2551 52.0811 23.1194C51.8371 22.6926 51.2967 22.5463 50.8741 22.7928L42.0526 27.9365C41.5058 28.2553 41.169 28.8446 41.169 29.4822V50.3665C41.169 50.5231 41.2098 50.677 41.2874 50.8127C41.5314 51.2395 42.0718 51.3858 42.4944 51.1393L51.3159 45.9956C51.8627 45.6768 52.1995 45.0876 52.1995 44.4499Z" fill="#BEBEBE"/>
<path d="M27.4732 1.19615L34.763 5.44676C35.3097 5.76559 35.6466 6.35481 35.6466 6.99246V17.2971C35.6466 17.79 35.251 18.1896 34.763 18.1896C34.6078 18.1896 34.4555 18.1483 34.3211 18.07L27.4732 14.0769C26.9265 13.7581 26.2528 13.7581 25.706 14.0769L12.9083 21.5391C12.3615 21.8579 12.0247 22.4471 12.0247 23.0848V38.0094C12.0247 38.647 12.3615 39.2362 12.9083 39.5551L25.706 47.0173C26.2528 47.3361 26.9265 47.3361 27.4732 47.0172L34.3211 43.0242C34.7438 42.7777 35.2842 42.924 35.5282 43.3508C35.6058 43.4865 35.6466 43.6404 35.6466 43.797V54.1019C35.6466 54.7396 35.3097 55.3288 34.763 55.6476L27.4732 59.8982C26.9265 60.2171 26.2528 60.2171 25.706 59.8982L1.86311 45.9956C1.31633 45.6767 0.979492 45.0875 0.979492 44.4499V16.6445C0.979492 16.0069 1.31633 15.4176 1.86311 15.0988L25.706 1.19615C26.2528 0.877324 26.9265 0.877324 27.4732 1.19615Z" fill="#BEBEBE"/>
</svg>
