<svg width="190" height="26" viewBox="0 0 190 26" fill="none" xmlns="http://www.w3.org/2000/svg">
<path fill-rule="evenodd" clip-rule="evenodd" d="M187.38 8.94516C189.063 10.4043 189.675 12.3242 189.904 14.3977C190.057 15.3961 189.981 16.4712 189.981 17.5464H180.115C180.191 19.2359 180.421 20.7718 181.95 21.7702C184.321 23.3061 186.463 22.3846 188.604 21.0022C189.063 21.9238 189.522 22.7686 189.981 23.7669C188.298 24.9957 186.463 25.7636 184.321 25.9172C178.891 26.378 175.526 22.3078 175.067 17.7C174.761 14.6281 175.373 11.7098 177.744 9.48274C180.344 6.94845 184.857 6.71806 187.38 8.94516ZM172.048 7.62709C172.351 7.70394 172.653 8.01132 172.729 8.24186C173.031 9.31769 173.334 10.4704 173.636 11.6999C172.956 11.4694 172.426 11.3157 171.897 11.162C169.402 10.5472 167.21 11.8536 166.454 14.3126C165.925 16.0032 166 17.6938 166.681 19.3076C167.739 21.9971 170.309 22.9961 172.88 21.7666C173.107 21.6129 173.409 21.5361 173.712 21.3055C174.014 22.2277 174.392 23.073 174.543 23.9183C174.619 24.1488 174.241 24.6099 174.014 24.7636C170.309 27.0689 165.395 25.9162 162.976 22.2277C160.255 18.078 160.935 12.3915 164.564 9.39453C166.756 7.55025 169.327 7.08918 172.048 7.62709ZM121.082 0.907938C125.666 1.51692 128.569 4.33348 130.02 8.59638C130.479 9.89047 130.555 11.4891 130.861 12.9354C130.632 15.8281 130.02 18.5685 128.493 21.0044C124.52 27.2465 115.505 27.7033 111.227 21.6896C107.789 16.8938 107.407 11.5652 110.234 6.3888C112.449 2.20203 116.269 0.298953 121.082 0.907938ZM87.5057 9.15546C88.9693 10.5358 89.5085 12.2996 89.7396 14.2168C89.8937 15.2904 89.7396 16.2874 89.7396 17.4377H79.8794C79.8794 19.1248 80.1105 20.6585 81.5742 21.5788C83.9622 23.1892 86.1961 22.3457 88.4301 20.8886C88.8923 21.8088 89.3545 22.7291 89.8167 23.726C86.7354 25.7199 83.577 26.7168 80.1105 25.2598C76.7211 23.8794 75.1804 20.9653 74.8723 17.5144C74.6412 14.907 75.0264 12.453 76.7211 10.3825C79.3402 7.00821 84.6555 6.39472 87.5057 9.15546ZM151.744 1.38401C151.973 1.45988 152.277 1.76337 152.353 1.99099C152.657 2.82559 152.809 3.73606 153.037 4.72241C151.897 4.41892 150.832 4.11543 149.919 5.0259C149.007 5.8605 149.235 6.9986 149.311 8.21256H158.665V25.5116H154.102V11.3233H149.311V25.5116H144.672V11.3233H138.816V25.5116H134.329V11.2475H132.352C132.124 10.1853 131.972 9.27478 131.743 8.21256H134.177C134.329 7.07447 134.405 6.08812 134.709 5.17765C135.622 2.29448 137.98 0.852897 141.326 1.38401C141.478 1.38401 141.782 1.53575 141.858 1.6875C142.086 2.67384 142.314 3.66019 142.542 4.72241C139.577 3.96368 138.512 5.10178 138.892 8.13669H144.748C144.824 7.60558 144.824 6.9986 144.9 6.46749C145.204 2.90146 148.17 0.625279 151.744 1.38401ZM70.8456 0.355469C71.6043 8.91925 72.2872 17.1772 73.0459 25.5116H68.4176L67.0519 8.30755C66.976 8.30755 66.976 8.30755 66.9001 8.23109C66.8242 8.38401 66.7484 8.6134 66.6725 8.76632C65.2309 14.0422 63.7134 19.2417 62.3477 24.5176C62.1959 25.2057 61.8924 25.5116 61.1337 25.4351C59.9956 25.3586 58.8575 25.4351 57.6435 25.4351C56.0501 19.624 54.4567 13.8893 52.8634 8.15462H52.6358C52.1805 13.8893 51.7253 19.624 51.1942 25.3586H46.5658C47.4004 17.0243 48.1592 8.76632 48.9938 0.431931H54.6844C54.8361 0.431931 55.1396 0.890705 55.2155 1.12009C56.6571 6.24307 58.0987 11.2896 59.6162 16.4126C59.6921 16.6419 59.7679 16.7949 59.9197 17.2536C60.5267 15.1127 61.1337 13.2011 61.6648 11.2896C62.5753 7.92524 63.5617 4.63736 64.3963 1.27302C64.548 0.584856 64.8515 0.355469 65.5344 0.355469C67.2795 0.431931 69.0246 0.355469 70.8456 0.355469ZM97.8568 3.88615V7.73982H101.131C101.436 8.72213 101.664 9.70443 101.969 10.7623H97.9329V12.3491C98.0091 14.9182 98.0091 17.4873 98.0852 20.0564C98.0852 20.2076 98.0852 20.4343 98.1614 20.5854C98.5421 22.3233 99.5319 22.7767 101.207 22.0966C101.359 22.0211 101.588 21.8699 101.892 21.7188C102.045 22.2477 102.197 22.7011 102.349 23.0789C102.806 24.5146 102.806 24.6657 101.283 25.0435C99.9888 25.3458 98.6182 25.5725 97.2476 25.4969C94.8872 25.3458 93.4405 23.5323 93.3643 20.8121C93.2882 17.8651 93.3643 14.9182 93.2882 11.9713V10.8379C92.6029 10.8379 91.9938 10.7623 91.3085 10.7623C91.08 9.78 90.9278 8.87325 90.6993 7.81538H93.2882V3.88615H97.8568ZM38.7321 14.238C39.5665 14.3884 40.0217 14.7646 39.87 15.6672C39.9458 16.1186 39.9458 16.4947 39.9458 16.9461C36.6841 17.2469 34.1809 19.0523 31.6018 20.632C30.1606 21.5347 28.6435 22.2869 27.0506 22.8135C25.0025 23.4905 22.9544 23.0392 20.9063 22.3622C18.7824 21.6852 16.6585 21.0081 14.4587 20.4816C9.67988 19.4284 5.58374 20.9329 2.09444 24.2428C1.86687 24.4684 1.63931 24.8446 1.41175 25.0702C1.33589 24.995 1.18418 24.995 1.10833 24.9198V19.8798C1.10833 19.6541 1.41175 19.4284 1.71516 19.278C5.12861 16.9461 8.84548 16.7956 12.7141 17.924C14.6104 18.4505 16.5068 19.1275 18.4031 19.7293C21.2098 20.5568 23.9405 20.1807 26.3679 18.601C27.9608 17.6231 29.5537 16.5699 31.2225 15.592C33.574 14.238 36.0014 13.7114 38.7321 14.238ZM114.817 7.37841C112.908 11.2607 112.984 15.2952 114.97 19.1775C115.963 21.0806 117.721 21.9179 119.86 21.8418C121.922 21.7657 123.298 20.7 124.138 18.9491C125.131 17.046 125.36 14.9907 125.437 13.0876C125.437 11.1846 125.207 9.43373 124.367 7.75902C123.45 5.77982 121.999 4.56185 119.707 4.48573C117.491 4.4096 115.811 5.47533 114.817 7.37841ZM31.1295 9.63915C32.2695 9.71598 33.4856 9.94646 34.6256 10.2538C36.3737 10.7916 38.1217 11.4062 39.9458 12.0976V13.5573C39.7178 13.4805 39.4138 13.4805 39.2618 13.3268C35.6136 11.5598 32.1935 12.0208 28.8494 14.0951C27.5573 14.9402 26.1893 15.7085 24.9732 16.6304C22.1611 18.551 19.197 18.9352 15.9289 17.8596C14.7128 17.4755 13.5728 17.0913 12.3568 16.7072C7.41657 15.2475 5.97251 15.1707 1.10833 16.784V13.7878C1.10833 13.1732 1.33634 13.0195 1.94436 13.0195C4.37645 12.8659 6.65654 13.4805 8.86062 14.1719C10.6847 14.7097 12.5088 15.3243 14.3328 15.7085C16.4609 16.1694 18.437 15.6316 20.2611 14.5561C21.7811 13.6341 23.2252 12.6354 24.7452 11.7135C26.7213 10.4842 28.7734 9.4855 31.1295 9.63915ZM180.191 14.4745H185.698C186.004 12.0938 185.086 10.6347 183.403 10.5579C181.415 10.4811 180.115 12.017 180.191 14.4745ZM81.266 10.9193C80.1105 11.7628 79.9565 12.9898 79.9565 14.3702H85.5799C85.5759 14.2955 85.5726 14.2207 85.5696 14.1461L85.5615 13.9226C85.5182 12.6215 85.5147 11.3774 84.2703 10.6892C83.2689 10.1524 82.1904 10.3058 81.266 10.9193ZM29.8176 6.22868C32.7114 7.53916 35.7575 7.84751 38.8797 7.69333C39.1843 7.69333 39.4127 7.61625 39.7174 7.61625C39.7174 7.53916 39.7935 7.61625 39.9458 7.61625V10.3143C37.7374 10.2372 35.6813 9.92885 33.7775 9.00381C29.8176 7.07664 26.1623 7.69333 22.6593 10.0059C21.6693 10.6226 20.6794 11.2393 19.7655 11.9331C16.5672 14.3228 13.0642 14.5541 9.40889 13.2436C7.12433 12.4727 4.83977 11.9331 2.47906 11.2393C2.0983 11.1622 1.64139 11.1622 1.10833 11.0852V9.0809C1.48909 9.15798 1.946 9.23507 2.32676 9.38924C3.8498 9.85176 5.29668 10.3914 6.81972 10.8539C9.94195 11.856 12.8357 11.3935 15.5772 9.6205C17.1002 8.61837 18.5471 7.61624 20.1463 6.76829C23.2685 4.9182 26.4669 4.68694 29.8176 6.22868ZM19.2768 0.856681C20.2683 0.933917 21.2598 1.16562 22.0987 1.5518C27.2851 3.86886 32.6239 3.63716 38.0391 2.24692C38.573 2.09245 39.1831 1.93798 39.717 1.78351C39.717 1.78351 39.7933 1.78351 39.9458 1.86074V5.02739C39.9458 5.18187 39.6407 5.41357 39.4882 5.41357C35.1408 6.26316 30.7172 6.26316 26.5986 4.48675C23.1665 3.01927 19.9632 3.17374 16.8361 5.02739C15.2345 5.95422 13.6328 7.03552 12.0312 8.03958C8.52276 10.3566 4.93809 9.81599 1.35342 8.42575C0.97207 8.27128 0.895801 7.42169 0.666992 6.80381C1.27715 6.88105 1.58223 6.88104 1.96357 6.95828C3.94658 7.18999 5.77705 6.88105 7.53125 5.87698C9.20918 4.87292 10.8871 3.79163 12.565 2.71033C14.6243 1.47456 16.8361 0.54774 19.2768 0.856681Z" fill="#BEBEBE"/>
</svg>
