<svg width="37" height="54" viewBox="0 0 37 54" fill="none" xmlns="http://www.w3.org/2000/svg">
<path d="M4.57205 35.3482C5.77157 36.0374 6.88542 36.7266 8.08495 37.4159C11.0838 39.1389 13.9969 40.9481 16.9957 42.6712C17.5098 43.0158 17.6812 43.3604 17.6812 43.8773V53.2679C17.6812 53.871 17.5955 53.871 17.1671 53.6126C15.4535 52.6649 13.7399 51.7172 12.0262 50.6834C9.71288 49.3911 7.48518 47.9265 5.17181 46.6342C4.31501 46.1173 3.97228 45.5142 4.05796 44.5665C4.14364 43.8773 4.14364 43.7911 4.74341 44.1358C6.1143 44.9111 7.3995 45.6865 8.77039 46.3757C10.227 47.2373 11.6835 48.0988 13.0544 48.9603C13.2258 49.0465 13.4828 49.2188 13.6542 49.3049C14.0826 49.4772 14.3396 49.3911 14.5967 48.9603C15.0251 48.1849 15.4535 47.4957 15.8819 46.7203C16.3103 45.8588 16.8244 44.9973 17.2528 44.2219C17.3384 44.0496 17.2528 43.8773 17.3384 43.705C17.1671 43.7911 16.9957 43.7911 16.8244 43.9635C15.8819 44.9111 15.0251 45.7727 14.1683 46.8065C13.7399 47.2373 13.4828 47.3234 12.9687 47.0649C11.1694 45.945 9.28447 44.9111 7.3995 43.7911C6.6855 43.3604 5.96198 42.9392 5.23528 42.5212L3.05201 41.2704C2.32531 40.8524 1.60179 40.4312 0.887787 40.0004C0.116662 39.5697 0.116662 39.5697 0.630745 38.8804C1.65891 37.6743 2.68708 36.5543 3.71524 35.3482C4.05796 35.0036 4.31501 35.1759 4.57205 35.3482ZM33.902 35.6236C34.2184 35.9953 34.5251 36.3765 34.8287 36.7608L35.7361 37.917C36.0397 38.3014 36.3464 38.6826 36.6628 39.0542C37.0079 39.4831 37.0079 39.6546 36.4902 39.9976C33.9883 41.4556 31.4001 42.9137 28.8982 44.3717C27.2591 45.3151 25.7062 46.1727 24.067 47.1161C23.6356 47.3734 23.2905 47.4592 22.8592 46.9446C22.169 46.0012 21.3926 45.1435 20.6161 44.2859C20.5298 44.1144 20.271 44.1144 20.0985 44.0286C20.0985 44.2859 20.0122 44.5432 20.0985 44.7147C20.8749 46.1727 21.6514 47.545 22.5141 49.003C22.8592 49.6033 23.2906 49.6891 23.8945 49.346C25.1023 48.6599 26.3101 47.888 27.5179 47.2019C29.1571 46.2585 30.7962 45.3151 32.5217 44.3717C33.1078 44.0387 33.1251 44.0289 33.1256 44.7344L33.1256 45.3151C33.2119 45.8297 32.953 46.1727 32.5217 46.43C30.6237 47.545 28.6394 48.6599 26.7414 49.7748C25.016 50.804 23.2906 51.8332 21.4788 52.8624C20.9612 53.2055 20.3573 53.4627 19.8397 53.72C19.5259 53.876 19.4974 53.6775 19.4948 53.5113L19.4946 51.4902C19.6548 50.4548 19.6662 49.5674 19.667 48.6906L19.6671 43.5998C19.6671 43.1709 19.8397 42.9137 20.1847 42.7421C24.067 40.5122 27.863 38.2823 31.7452 36.0525C32.0903 35.8809 32.3491 35.6236 32.6942 35.4521C33.2981 35.0233 33.3844 35.0233 33.902 35.6236ZM33.889 11.6607C34.661 13.586 35.0899 15.5989 35.0899 17.6992C35.0899 21.9874 33.8032 25.9255 30.8869 29.076C29.8246 30.207 28.7125 31.2618 27.5909 32.3088L26.6281 33.2059C25.986 33.8049 25.3444 34.4076 24.711 35.027C22.9097 36.6897 21.1085 38.44 19.2214 40.1028C18.4494 40.8029 18.4494 40.8029 17.6774 40.1028C14.2464 36.9523 10.8154 33.8018 7.38437 30.5638C4.55378 27.8508 2.75249 24.6128 2.15206 20.6747C1.89474 19.712 1.80896 18.7494 1.72319 17.8742C1.72319 9.91046 7.21282 2.99685 14.6753 1.24657C22.9097 -0.678733 31.0584 4.04702 33.889 11.6607ZM18.4494 3.2594C10.9012 3.2594 4.21068 9.38538 4.21068 17.7867C4.21068 26.2756 11.0727 32.314 18.4494 32.314C26.4265 32.314 32.7739 25.4004 32.6024 17.7867C32.7739 9.91046 26.255 3.2594 18.4494 3.2594ZM28.3611 19.601C28.694 19.7553 29.027 19.9866 28.8605 20.3722C28.7773 20.835 28.3611 20.7578 27.9449 20.6807C27.6119 20.6036 27.279 20.6036 26.946 20.6807C26.6131 20.7578 26.6131 21.0663 26.946 21.2206C27.1957 21.3748 27.5287 21.4519 27.7784 21.5291C28.9437 21.9147 29.3599 22.5316 29.2767 23.3029C29.1102 24.3055 28.3611 24.8453 27.1125 24.9224C26.6131 24.7682 26.1136 24.6139 25.6142 24.4597C25.3645 24.3055 25.198 24.0741 25.3645 23.7656C25.531 23.4571 25.7807 23.38 26.1136 23.4571C26.4466 23.5342 26.8628 23.6885 27.1957 23.6885C27.4454 23.6885 27.6952 23.4571 27.8616 23.3029C27.9449 23.2257 27.6952 22.8401 27.4454 22.763C27.1125 22.6088 26.6963 22.4545 26.3633 22.3774C25.2812 22.0689 24.9483 20.9121 25.9472 19.9866C26.5298 19.4468 27.6119 19.2925 28.3611 19.601ZM8.46906 19.4438C8.90427 19.4438 8.97681 19.8408 8.97681 20.1584V24.1284C8.97681 24.5254 8.90427 24.843 8.46906 24.9224C8.03384 24.9224 7.88877 24.6048 7.88877 24.2078V20.1584C7.88877 19.7614 8.03384 19.4438 8.46906 19.4438ZM13.1713 19.5053C13.3448 19.5053 13.6917 19.7516 13.6917 19.9157C13.6917 20.0799 13.4315 20.4082 13.258 20.4903C12.3907 20.8186 12.304 20.8186 12.304 21.7214V24.2658C12.304 24.5941 12.1306 24.9224 11.6969 24.9224C11.2633 24.9224 11.0898 24.5941 11.0031 24.1837V23.1988C11.0898 23.1167 11.0898 22.8705 11.0898 22.7064V21.8035C11.0898 20.9007 11.0898 20.9007 10.1358 20.5723C9.96236 20.4903 9.70217 20.244 9.70217 19.9978C9.70217 19.8337 10.0491 19.5874 10.2225 19.5053C11.1766 19.4233 12.2173 19.4233 13.1713 19.5053ZM24.0704 19.9082C24.2525 20.1428 24.2525 20.4555 24.3435 20.6901C24.6166 21.8629 24.7986 22.9576 24.8897 23.974C24.9807 24.4432 24.9807 24.9123 24.4345 24.9123C23.9794 24.9123 23.7974 24.5996 23.7064 24.2086C23.6153 23.8177 23.5243 23.3485 23.4333 22.9576C23.3423 22.8012 23.1602 22.6448 23.0692 22.4103C22.9782 22.5666 22.7961 22.6448 22.7051 22.8794C22.523 23.3485 22.432 23.8177 22.159 24.2868C22.0679 24.5996 21.7949 24.9905 21.3397 24.9123C21.0667 24.8341 20.7026 24.5996 20.6116 24.2868C20.3385 23.8177 20.2475 23.3485 20.0654 22.8794C19.9744 22.723 19.7923 22.5666 19.6103 22.4103C19.5193 22.5666 19.4282 22.723 19.3372 22.8794C19.2462 23.3485 19.1552 23.8177 19.0642 24.2868C18.9731 24.6777 18.7001 24.9123 18.2449 24.9123C17.8808 24.9123 17.6078 24.5214 17.6988 24.0522C17.8808 22.8012 18.1539 21.6284 18.427 20.3773C18.518 19.9082 18.7911 19.5173 19.3372 19.5173C19.8834 19.4391 20.1564 19.83 20.3385 20.221C20.5205 20.7683 20.7026 21.3156 20.9756 21.7847C21.0667 21.9411 21.2487 22.0975 21.3397 22.1757C21.4308 22.0193 21.6128 21.8629 21.7038 21.7066C21.8859 21.2374 22.0679 20.8465 22.25 20.3773C22.341 20.1428 22.432 19.9082 22.6141 19.7518C23.0692 19.2827 23.7064 19.3609 24.0704 19.9082ZM16.6489 19.48C16.9 19.48 17.1511 19.8062 17.2348 19.9692C17.3185 20.2954 16.9837 20.4584 16.6489 20.4584H15.7283C15.3935 20.4584 15.2261 20.703 15.2261 20.9476C15.2261 21.2738 15.3935 21.4368 15.7283 21.4368C15.9793 21.4368 16.3141 21.3553 16.4815 21.5184C16.7326 21.5999 16.9837 21.8445 17.0674 22.0891C17.1511 22.4153 16.8163 22.5783 16.4815 22.5783H15.7283C15.3098 22.5783 15.2261 22.9045 15.3098 23.2306C15.3935 23.3937 15.5609 23.6383 15.812 23.7198C16.1467 23.8013 16.4815 23.7198 16.8163 23.8013C16.9837 23.8829 17.3185 24.1275 17.3185 24.2905C17.3185 24.4536 17.0674 24.7797 16.9 24.8613C16.1467 24.9428 15.3935 24.9428 14.6402 24.8613C14.3054 24.8613 14.138 24.4536 14.138 24.1275C14.0648 23.5567 14.0557 22.986 14.0545 22.4153L14.0543 20.2954C14.0543 19.6431 14.2217 19.48 14.8913 19.48C15.4772 19.48 16.063 19.3985 16.6489 19.48ZM24.7301 10.678C25.3375 10.8458 25.8582 10.8458 26.3788 10.8458C26.8995 10.8458 27.3334 10.7619 27.854 10.8458C28.1143 10.9297 28.4614 11.1814 28.5482 11.4331C28.635 11.8527 28.2879 11.9366 27.854 12.0205C27.0373 12.1784 26.9893 12.1877 26.9864 12.8178L26.9862 15.7124C26.9862 15.9641 27.073 16.2158 26.9862 16.3836C26.8995 16.6354 26.5524 16.8871 26.3788 16.8871C26.2053 16.8871 25.8582 16.5515 25.7714 16.2997C25.6846 15.9641 25.7714 15.6285 25.7714 15.2929V12.7756C25.7714 12.2722 25.6846 11.8527 24.9904 11.8527C24.9036 11.8527 24.7301 11.8527 24.7301 11.7688C24.5565 11.6009 24.2094 11.4331 24.2094 11.1814C24.2094 11.0136 24.4697 10.678 24.7301 10.678ZM12.2061 10.7619C12.9432 10.9297 13.5165 11.517 13.5984 12.2722C13.6803 12.9435 13.5165 13.6147 12.8613 13.9503C12.288 14.3699 12.288 14.4538 12.6975 15.0411C12.9432 15.3768 13.2708 15.6285 13.5165 15.8802C13.7622 16.2158 13.7622 16.4676 13.4346 16.7193C13.107 16.971 12.7794 16.8871 12.6156 16.6354C12.2061 16.1319 11.7966 15.6285 11.3871 15.125C11.2233 14.9572 10.9775 14.8733 10.8137 14.7894C10.7318 14.9572 10.6499 15.2089 10.568 15.3768C10.4861 15.7124 10.6499 16.048 10.4861 16.3836C10.4042 16.6354 10.0766 16.8871 9.91281 16.8871C9.749 16.8871 9.5033 16.6354 9.42139 16.3836C9.34859 16.2345 9.3405 16.019 9.3396 15.7962L9.33949 11.9366C9.33949 10.8458 9.5033 10.7619 10.4861 10.7619C10.7045 10.6873 10.8582 10.679 11.0047 10.6781L11.0594 10.678C11.469 10.678 11.8785 10.678 12.2061 10.7619ZM22.9927 10.678C23.4022 10.678 23.4841 11.017 23.4841 11.3559V16.1866C23.4841 16.4408 23.3203 16.8645 23.0746 16.8645C22.9108 16.9493 22.5013 16.7798 22.3375 16.6103C21.6824 15.8476 21.191 15.0848 20.5358 14.3221C20.2901 14.0679 19.9625 13.8136 19.7169 13.5594C19.635 13.8984 19.5531 14.2374 19.5531 14.5764V16.1866C19.5531 16.6103 19.3893 16.9493 18.8979 16.8645C18.4884 16.7798 18.4065 16.4408 18.4065 16.1018V11.5254C18.4065 11.1864 18.4884 10.7627 18.816 10.7627C19.0617 10.7627 19.4712 10.9322 19.635 11.1017C19.9989 11.5254 20.3124 11.9492 20.6174 12.3729L20.982 12.8814C21.104 13.0509 21.2274 13.2204 21.3548 13.3899C21.6005 13.6441 21.928 13.8984 22.1737 14.1526C22.2556 13.8136 22.4194 13.3899 22.4194 13.0509C22.5013 12.4577 22.4194 11.8644 22.4194 11.3559C22.4194 10.9322 22.5832 10.678 22.9927 10.678ZM16.8651 10.7134C17.3547 10.7134 17.5996 11.0323 17.5996 11.4309C17.518 11.8294 17.1915 11.9092 16.8651 11.9092H16.2123C15.6411 11.9092 15.4779 12.0686 15.4779 12.6266C15.4779 13.1049 15.7227 13.2644 16.1307 13.2644C16.4571 13.2644 16.7835 13.2644 17.1099 13.3441C17.2731 13.4238 17.518 13.6629 17.518 13.8224C17.518 13.9818 17.2731 14.221 17.1099 14.221C16.8651 14.3007 16.5387 14.221 16.2123 14.3007C15.6411 14.3804 15.4779 14.5398 15.4779 15.0979C15.4779 15.5762 15.7227 15.8153 16.2123 15.8153C16.2667 15.8153 16.3211 15.8131 16.3755 15.8102L16.5387 15.8006C16.7563 15.7888 16.9739 15.7888 17.1915 15.895C17.3547 15.9748 17.6812 16.2139 17.6812 16.3734C17.6812 16.5328 17.4364 16.8517 17.1915 16.8517C16.7835 16.8959 16.3755 16.891 15.9675 16.8779L15.4779 16.8608C15.3147 16.8556 15.1515 16.8517 14.9883 16.8517C14.5802 16.8517 14.4986 16.5328 14.4986 16.1342C14.4296 15.3248 14.419 14.6865 14.4173 14.0264L14.417 11.5903C14.417 10.9525 14.5802 10.7931 15.2331 10.7134C15.8043 10.7134 16.3755 10.6337 16.8651 10.7134ZM11.3052 11.9366C10.8956 11.9366 10.8137 12.2722 10.8137 12.6078C10.7318 13.1113 10.9775 13.2791 11.3871 13.2791C11.9604 13.2791 12.288 12.9435 12.288 12.6078C12.288 12.2722 11.7966 11.9366 11.3052 11.9366Z" fill="#BEBEBE"/>
</svg>
