<?xml version="1.0" encoding="utf-8"?>
<!-- Generator: Adobe Illustrator 16.0.0, SVG Export Plug-In . SVG Version: 6.00 Build 0)  -->
<!DOCTYPE svg PUBLIC "-//W3C//DTD SVG 1.1//EN" "http://www.w3.org/Graphics/SVG/1.1/DTD/svg11.dtd" [
	<!ENTITY ns_flows "http://ns.adobe.com/Flows/1.0/">
	<!ENTITY ns_extend "http://ns.adobe.com/Extensibility/1.0/">
	<!ENTITY ns_ai "http://ns.adobe.com/AdobeIllustrator/10.0/">
	<!ENTITY ns_graphs "http://ns.adobe.com/Graphs/1.0/">
]>
<svg version="1.1" id="Layer_1" xmlns:x="&ns_extend;" xmlns:i="&ns_ai;" xmlns:graph="&ns_graphs;"
	 xmlns="http://www.w3.org/2000/svg" xmlns:xlink="http://www.w3.org/1999/xlink" xmlns:a="http://ns.adobe.com/AdobeSVGViewerExtensions/3.0/"
	 x="0px" y="0px" width="864px" height="864px" viewBox="0 0 864 864" enable-background="new 0 0 864 864" xml:space="preserve">
<path fill-rule="evenodd" clip-rule="evenodd" d="M223.171,596.459c-22.689-3.206-44.228-7.127-63.731-19.666
	c-37.343-24.008-40.117-72.443-14.576-101.67c18.442-21.104,53.445-29.701,81.583-17.237c10.087,4.469,18.219,10.425,22.142,20.965
	c0.769,2.064,0.206,4.623,0.256,6.954c-2.315-0.032-4.794,0.458-6.91-0.207c-4.247-1.333-8.333-3.212-12.418-5.015
	c-21.665-9.554-49.556,7.903-47.469,33.25c1.312,15.928,11.476,27.06,26.661,32.548c15.378,5.559,31.671,5.281,46.825,1.151
	c45.83-12.491,76.71-41.635,90.803-87.445c2.243-7.288,2.776-15.127,3.744-22.757c0.157-1.239-1.553-2.717-2.602-4.411
	c-10.275,10.21-19.695,20.309-29.914,29.522c-10.934,9.857-24.196,15.398-39.01,15.224c-12.652-0.15-21.004-8.286-25.539-19.1
	c-4.04-9.635-2.086-19.199,6.101-26.874c2.74-2.568,4.748-5.917,7.503-9.435c-2.45-1.878-6.986-4.249-10.015-7.876
	c-11.483-13.754-3.544-36.456,14.187-41.04c17.267-4.465,32.159,1.431,45.121,12.197c11.074,9.197,21.2,19.536,31.456,29.098
	c4.5-10.58,0.774-22.803-3.537-34.02c-14.509-37.756-40.884-64.156-79.746-76.441c-14.46-4.571-29.628-6.739-45.242-4.178
	c-24.259,3.978-42.437,27.236-35.738,48.303c3.783,11.896,12.306,18.466,23.648,21.719c12.365,3.547,23.327-0.403,33.628-7.301
	c1.588-1.064,4.375-1.522,6.057-0.861c1.177,0.461,2.023,3.323,1.975,5.085c-0.263,9.684-6.689,16.301-13.966,20.313
	c-30.914,17.047-62.652,13.883-88.211-11.797c-23.083-23.192-26.632-59.306-5.394-85.214c16.177-19.734,37.891-28.647,61.762-33.854
	c5.578-1.217,11.366-1.471,17.337-3.457c-9.979-1.483-19.938-3.13-29.942-4.413c-17.433-2.235-33.399-7.813-41.602-24.49
	c-4.269-8.679-6.16-18.91-7.309-28.655c-1.879-15.939-2.195-32.06-3.354-48.091c-0.273-3.771-1.278-7.489-1.947-11.231
	c4.13,0.539,8.247,1.202,12.391,1.59c6.967,0.652,13.947,1.179,20.928,1.671c14.234,1.003,28.744,0.546,42.647,3.239
	c22.061,4.272,33.35,19.958,36.632,41.438c1.698,11.11,2.003,22.427,3.247,33.617c0.386,3.474,1.787,6.834,2.697,10.155
	c2.734-15.557,4.173-30.986,8.307-45.655c7.252-25.731,22.787-45.627,49.24-53.224c15.994-4.593,32.821-4.14,48.431,4.45
	c36.47,20.069,43.155,55.077,33.364,88.104c-3.938,13.286-12.626,24.248-25.364,24.508c-1.72,0.036-3.451-0.458-5.177-0.707
	c0.454-1.786,0.531-3.792,1.422-5.323c6.389-10.978,9.635-22.71,6.46-35.169c-3.384-13.273-12.68-21.448-25.944-24.118
	c-12.432-2.502-23.293,1.465-31.833,10.974c-8.49,9.455-12.908,20.34-13.291,33.342c-0.94,31.914,10.757,58.527,31.672,81.996
	c17.771,19.941,39.171,33.293,65.498,38.033c6.305,1.135,12.989,0.168,19.348,0.168c-9.413-10.102-18.035-19.505-26.822-28.753
	c-13.933-14.666-18.371-31.892-13.091-51.226c4.183-15.316,26.781-20.718,40.089-10.168c3.58,2.837,7.534,5.203,11.316,7.785
	c-0.539,1.031-1.077,2.061-1.615,3.092c2.079-2.005,4.94-3.635,6.111-6.076c8.397-17.503,33.747-11.041,41.033,1.479
	c8.521,14.641,6.354,29.751-2.584,42.516c-9.12,13.024-21.057,24.092-31.944,35.845c-1.366,1.474-3.86,1.903-7.257,3.478
	c10.518,4.726,19.861,2.965,29.04,0.749c25.692-6.205,46.679-20.235,63.273-40.443c20.63-25.12,31.517-54.171,26.449-86.663
	c-3.475-22.276-23.739-43.33-50.617-35.012c-10.763,3.331-19.702,15.722-20.536,27.195c-0.833,11.479,0.091,22.516,6.876,32.405
	c0.639,0.931,0.523,3.47-0.172,3.973c-1.032,0.744-2.958,0.648-4.397,0.365c-16.438-3.237-22.172-16.858-25.691-30.124
	c-4.106-15.479-4.634-32.046,2.608-47.136c9.725-20.265,24.1-36.329,46.648-42.455c24.178-6.569,56.257,7.883,69.719,29.118
	c8.457,13.341,14.311,27.385,17.247,42.704c1.029,5.366,0.75,10.979,1.108,16.478c0.17,2.604,0.436,5.201,0.658,7.802
	c0.842,0.077,1.683,0.153,2.524,0.23c1.022-5.836,2.027-11.675,3.069-17.508c2.062-11.528,2.984-23.418,6.478-34.497
	c5.732-18.178,24.771-30.443,43.974-31.076c17.367-0.572,34.711-1.887,52.058-2.988c2.188-0.139,4.311-1.126,6.504-1.425
	c1.737-0.236,4.493-0.694,5.086,0.15c0.929,1.319,1.203,4.146,0.377,5.479c-5.032,8.121-3.382,17.16-3.765,25.814
	c-0.696,15.782,1.131,31.637-4.296,47.128c-5.704,16.282-16.55,26.672-33.054,30.374c-12.897,2.893-26.159,4.131-39.214,6.37
	c-2.514,0.432-4.816,2.093-7.788,3.448c12.317,1.469,24.018,1.947,35.285,4.403c22.378,4.879,40.839,16.875,53.298,36.1
	c15.157,23.389,11.801,51.675-5.109,74.314c-20.414,27.329-62.5,34.342-91.33,16.535c-5.229-3.229-8.844-9.317-12.608-14.517
	c-1.079-1.489-0.806-6.046,0.119-6.479c2.145-1.003,5.901-1.444,7.541-0.193c14.536,11.097,29.122,6.717,43.084-0.212
	c15.706-7.795,19.321-33.077,7.976-46.842c-14.06-17.057-31.629-20.473-53.043-18.71c-20.452,1.683-38.065,8.649-54.174,19.781
	c-29.359,20.289-47.542,48.271-52.835,83.889c-0.554,3.725,1.812,7.883,2.269,9.671c9.23-8.271,18.984-16.894,28.604-25.662
	c8.731-7.957,19.208-13.203,30.438-15.125c13.878-2.375,28.711,5.367,32.732,14.698c6.197,14.379,3.639,23.379-10.631,36.762
	c3.22,3.969,6.939,7.666,9.614,12.009c11.504,18.68-2.755,41.994-24.21,41.083c-19.554-0.83-33.998-9.775-46.493-23.667
	c-6.323-7.028-13.065-13.68-20.393-21.307c-1.856,10.203-1.138,19.317,1.495,28.56c4.449,15.617,12.564,28.885,22.081,42.062
	c14.4,19.938,32.989,33.476,55.583,41.136c19.535,6.624,39.703,9.683,60.219,1.693c22.547-8.78,30.903-33.062,22.972-48.908
	c-5.478-10.941-14.913-17.495-27.455-18.298c-6.869-0.44-13.812-0.364-20.677,0.117c-2.743,0.192-5.314,2.254-8.062,3.173
	c-1.924,0.643-4.014,0.789-6.03,1.158c-0.017-2.288-0.771-4.901,0.069-6.812c5.865-13.333,18.105-18.548,30.833-21.582
	c29.41-7.011,53.345,1.857,73.716,24.704c24.774,27.784,15.737,73.077-11.037,91.605c-14.955,10.348-31.182,16.803-47.948,22.351
	c-5.684,1.881-12.512,0.298-18.817,0.298c-0.113,0.65-0.225,1.299-0.338,1.948c5.178,1.048,10.328,2.265,15.539,3.105
	c8.663,1.398,17.458,2.108,26.033,3.897c25.541,5.326,36.768,25.166,38.9,48.671c1.252,13.789,0.91,27.718,1.811,41.548
	c0.354,5.413,1.738,10.863,3.41,16.053c1.364,4.239-0.769,5.799-3.731,4.734c-19.357-6.956-39.391-2.879-59.077-4.163
	c-17.306-1.129-33.207-6.451-42.045-22.268c-4.96-8.874-6.825-19.635-9.118-29.765c-0.933-4.121,0.779-8.817,1.148-13.264
	c0.597-7.194-2.102-13.272-5.657-19.231c-2.82,15.002-4.155,29.722-8.484,43.5c-8.163,25.973-23.971,46.125-51.637,53.113
	c-24.425,6.171-46.419,0.864-64.387-17.966c-23.896-25.042-26.683-62.187-7.437-90.392c5.251-7.694,13.093-10.001,21.854-9.397
	c0.829,0.058,2.482,4.244,1.901,5.839c-2.353,6.462-6.05,12.464-8.122,18.994c-5.799,18.271,6.186,35.915,24.922,40.289
	c21.408,4.997,41.745-17.271,44.139-35.396c4.781-36.209-8.266-65.732-31.928-91.972c-19.783-21.938-44.223-34.646-73.347-38.442
	c-4.05-0.527-8.286,0.382-13.188,0.67c8.907,8.493,16.843,16.105,24.831,23.664c10.838,10.255,17.655,22.897,22.123,36.96
	c3.312,10.426,0.068,20.922-8.583,28.239c-9.286,7.854-19.234,11.978-30.816,5.171c-4.41-2.592-8.35-5.981-12.638-9.105
	c-8.43,7.542-17.986,14.775-30.983,11.854c-18.264-4.105-27.831-21.53-22.303-39.459c4.324-14.022,11.924-25.853,22.78-35.797
	c6.75-6.185,12.879-13.048,20.883-21.241c-8.792,0.462-16.045-0.044-22.903,1.366c-21.422,4.404-40.411,14.193-56.004,29.506
	c-19.386,19.037-32.658,41.657-37.343,68.879c-2.435,14.146-2.026,27.833,3.031,41.481c8.076,21.802,36.148,32.157,54.327,18.938
	c4.879-3.547,8.781-9.653,10.979-15.407c4.109-10.759,5.219-22.253,1.608-33.542c-1.008-3.151-3.549-5.812-5.461-8.815
	c2.931-3.607,9.131-2.555,14.996,2.587c11.487,10.073,16.042,23.515,17.628,37.935c3.196,29.078-9.783,51.678-31.705,68.771
	c-16.56,12.912-48.569,15.065-68.74,1.648c-20.603-13.704-32.83-32.655-37.674-56.578c-1.427-7.046-1.851-14.291-2.832-21.432
	c-0.419-3.048-1.087-6.061-3.404-9.102c-1.942,12.558-4.405,25.061-5.719,37.683c-2.774,26.648-23.033,42.333-46.184,44.414
	c-13.551,1.219-27.262,0.6-40.833,1.666c-7.59,0.598-15.037,2.978-22.561,4.486c-1.506,0.302-3.793,0.956-4.438,0.261
	c-0.856-0.924-1.203-3.672-0.476-4.501c7.762-8.849,4.787-19.582,5.471-29.627c1.009-14.819,0.219-29.962,3.052-44.406
	c3.938-20.075,20.466-32.83,40.79-35.455C197.774,600.858,210.452,598.499,223.171,596.459z"/>
</svg>
