<?xml version="1.0"?>
<svg version="1.1" xmlns="http://www.w3.org/2000/svg" width="280" height="104" style=""><path fill="#fafbfc" d="M16.988,89.843q0-7.668,4.544-15.194q-5.254-3.337-5.254-9.869q0-7.881,6.958-13.987q7.81-6.887,20.164-6.887q5.68,0,12.212,1.633q1.491,0.355,12.709,5.5025t16.117,5.1475q3.266,0,4.899-1.846q0.852-0.923,0.852-1.988t-0.923-1.917q-0.497-0.71-0.497-0.923t0.3905-0.213t1.349,1.2425t0.9585,2.911t-2.2365,3.195t-5.6445,1.5265q-5.325,0-16.543-5.1475t-14.0935-5.7155t-6.5675-0.568q-14.697,0-23.146,9.514q-0.994,1.065-2.343,4.2955t-1.349,6.2125q0,4.118,2.911,6.39q3.692-5.396,8.733-8.591t10.224-3.195q6.39,0,6.39,4.97q0,5.964-6.9935,12.9575t-12.9575,6.9935q-3.834,0-3.834-3.266q0-1.136,0.6035-1.988t1.4555-0.639l-0.142,1.633q0,1.065,3.266,1.065q4.828,0,10.1885-4.97t6.4965-9.727q0.284-1.065,0.284-1.917q0-3.195-4.0825-3.195t-8.449,3.124t-8.2005,8.236q0.284,0.142,2.201,0.568l4.26,0.142q3.124,0.142,3.124,0.71q0,0.994-2.982,0.994l-0.426,0q-4.331,0-7.1-1.065q-5.467,8.378-5.467,15.407q0,9.088,7.029,9.088q7.952,0,16.543-11.076l13.916-20.732q7.81-11.36,13.561-11.644l2.698,0.639q1.278,0.71,1.278,2.13t-0.71,1.42l-2.272-0.355q-4.899,0-12.567,10.579l-14.129,19.738q-9.088,10.579-17.395,10.579q-5.68,0-7.8455-3.053t-2.1655-8.875z M68.68807,95.523q-0.781,0-1.42-0.213q-4.544-1.278-4.544-5.112q0-4.97,6.248-11.502t11.218-6.532q1.633,0,2.6625,0.8875t1.0295,2.1655q0,3.976-5.9995,7.597t-9.7625,3.621q-0.568,0-0.994-0.142q-1.065,1.917-1.065,4.047q0,3.692,3.5145,3.692t9.1235-4.757q4.331-3.479,7.384-7.384q0.639-0.852,1.1005-0.852t0.4615,0.426t-0.568,1.207q-3.834,5.041-9.23,8.946t-9.159,3.905z M82.10707,75.075q0-0.852-1.8105-0.852t-5.1475,2.769q-4.473,3.692-6.958,7.739q0.426,0.142,0.923,0.142q2.698,0,7.2065-2.8755t5.6445-6.2835q0.142-0.355,0.142-0.639z M99.51414,93.535q-2.059,1.207-5.0765,1.207t-4.615-1.988t-2.7335-6.319q-1.278,1.278-1.775,1.278q-0.355,0-0.355-0.497t0.355-0.852q2.343-2.911,7.952-8.378l8.946-8.378q3.834-3.621,4.544-3.621q2.272,0,2.272,1.704q0,0.852-0.6745,1.6685t-0.994,1.278t-0.6745,0.8875q-1.278,2.201-2.5915,9.088t-2.0235,9.585q5.893-0.071,12.141-7.668q0.71-0.71,1.065-0.71t0.355,0.4615t-0.639,1.2425q-4.118,4.828-7.668,6.745q-2.13,1.065-5.538,1.775z M89.92914,85.654q0,2.414,1.5975,3.9405t3.5855,1.5265t3.053-0.781q1.42-0.781,2.8045-6.532t1.6685-10.153l0.284-2.414q-3.905,2.911-8.3425,7.526t-4.5795,6.106q-0.071,0.426-0.071,0.781z M133.60621,71.738l10.224-0.142q0.213,0.142,0.213,0.213q0,0.639-8.8395,1.775t-9.5495,1.349q-1.349,1.207-4.97,7.2065t-3.621,8.7685q0,2.627,3.621,2.627q1.704,0,4.473-1.065t4.26-1.988q3.976-2.485,8.52-7.313q0.994-0.994,1.349-0.994q0.213,0,0.213,0.426t-1.065,1.704q-3.692,4.544-8.307,7.313q-5.538,3.408-10.579,3.408q-2.201,0-3.5855-0.9585t-1.3845-3.8695t2.556-7.9875t3.905-7.5615q-0.994,0.213-1.704,0.213q-2.059,0-2.059-1.633q0-1.207,1.704-1.704q0.213,0,0.639-0.071l4.118,0q1.278-1.633,2.911-3.763q1.988-2.556,2.698-2.556t1.775,0.568t1.065,1.349t-3.408,4.615q1.846,0.071,4.828,0.071z"/><path fill="#06df77" d="M168.35028,52.224q0,2.212-2.156,5.208q-1.68,2.352-4.466,3.78t-5.138,1.428q-0.868,0-1.456-0.196q-1.176,1.512-3.78,4.732q0.98,1.4,3.542,2.632t4.41,1.232t2.744-0.504q1.232-0.644,1.232-1.848q0-0.308-0.056-0.588t0.182-0.28t0.42,0.406t0.182,0.714q0,0.98-1.036,1.848q-1.316,1.064-3.584,1.064t-4.704-1.064t-4.004-2.884q-2.24,2.24-4.256,2.24q-0.616,0-1.064-0.224q-0.98-0.56-0.98-2.128t1.302-3.864t2.058-2.436q0.504,0,1.148,1.148l1.764,3.416q1.484-1.96,3.108-4.284q-2.296-1.036-2.296-2.996q0-1.624,1.316-2.632q0.728-0.532,1.554-0.532t1.246,0.868q0.084,0.168,0.014,0.21t-0.098,0.014q-0.56-0.56-1.204-0.56l-0.056,0q-0.812,0-1.414,0.868t-0.602,1.596l0,0.168q0,1.456,2.016,2.492q0.336-0.476,1.078-1.582t1.162-1.722q5.572-8.176,9.268-8.176q2.604,0,2.604,2.436z M165.85828,50.264q-1.4,0-3.472,2.352q-1.428,1.652-3.346,4.438t-3.458,4.774q0.364,0.084,0.812,0.084q1.96,0,4.48-1.344t3.976-3.388q2.548-3.556,2.548-5.404q0-1.12-0.98-1.428q-0.252-0.084-0.56-0.084z M149.95428,66.98q-0.672-0.924-1.4-2.366t-0.966-1.722t-0.322-0.28l-0.112,0q-0.504,0.084-1.092,1.792t-0.588,3.346t1.008,1.638q0.728,0,1.75-0.756t1.722-1.652z M171.26704,62.864q0,0.98-1.876,3.276q-2.212,2.716-3.78,2.716l-0.448,0q-0.728,0-1.148-0.756q-0.336-0.532-0.336-1.176q0-1.68,2.45-4.718t3.962-3.038q1.428,0,1.428,1.512q0,0.392-0.14,1.008q0.028,0.084,0.532,0.084t1.54-0.532q-0.028,0.476-2.212,1.372q0.028,0.112,0.028,0.252z M169.44704,61.408q-0.952,0-2.702,2.24t-1.75,3.304t0.672,1.064q1.204,0,3.052-2.184t1.848-3.136q-0.448-0.252-1.12-1.288z M182.4158,60.26l0.392-0.084q0.364,0,0.574,0.224t0.21,0.35t-0.028,0.28t-0.812,1.414q-0.98,1.708-1.624,2.884q-2.268,4.228-3.472,5.796q-2.576,3.416-4.9,3.416q-0.812,0-1.414-0.686t-0.63-1.526q0.084-0.336,0.252-0.336q0.084,0,0.14,0.196q0.14,0.728,0.532,1.12t0.784,0.392q1.596,0,3.416-2.1q1.204-1.4,2.66-4.088l1.4-2.772l-2.1,2.128q-2.016,1.932-2.758,1.932t-1.414-0.504q-0.756-0.56-0.756-1.484q0-2.044,2.87-4.872t5.222-2.828q0.952,0,1.232,0.616q0.084,0.224,0.14,0.378t0.084,0.154z M174.0438,67.148q0,1.008,0.7,1.008q1.624,0,4.424-3.556l2.968-4.088q-0.168-0.392-0.7-0.392q-1.736,0-4.564,2.674t-2.828,4.354z M191.96856,62.864q0,0.98-1.876,3.276q-2.212,2.716-3.78,2.716l-0.448,0q-0.728,0-1.148-0.756q-0.336-0.532-0.336-1.176q0-1.68,2.45-4.718t3.962-3.038q1.428,0,1.428,1.512q0,0.392-0.14,1.008q0.028,0.084,0.532,0.084t1.54-0.532q-0.028,0.476-2.212,1.372q0.028,0.112,0.028,0.252z M190.14856,61.408q-0.952,0-2.702,2.24t-1.75,3.304t0.672,1.064q1.204,0,3.052-2.184t1.848-3.136q-0.448-0.252-1.12-1.288z"/></svg>
